<?xml version="1.0" standalone="no"?>
<!DOCTYPE svg PUBLIC "-//W3C//DTD SVG 20010904//EN"
 "http://www.w3.org/TR/2001/REC-SVG-20010904/DTD/svg10.dtd">
<svg version="1.0" xmlns="http://www.w3.org/2000/svg"
 width="500.000000pt" height="500.000000pt" viewBox="0 0 500.000000 500.000000"
 preserveAspectRatio="xMidYMid meet">
<metadata>
Created by potrace 1.14, written by Peter Selinger 2001-2017
</metadata>
<g transform="translate(0.000000,500.000000) scale(0.100000,-0.100000)"
fill="#000000" stroke="none">
<path d="M2750 4594 c-69 -28 -136 -56 -150 -62 -14 -6 -115 -47 -225 -92
-110 -44 -209 -85 -220 -90 -11 -5 -69 -29 -130 -54 -165 -67 -188 -76 -210
-86 -11 -5 -110 -45 -220 -90 -110 -45 -209 -85 -220 -90 -11 -5 -60 -26 -110
-46 -93 -38 -177 -87 -207 -120 -10 -11 -27 -42 -39 -69 -19 -44 -22 -66 -22
-224 0 -192 9 -244 51 -299 44 -57 101 -88 369 -197 142 -58 272 -112 288
-120 17 -7 80 -33 140 -58 282 -115 668 -273 844 -345 l193 -80 -4 156 c-4
175 -16 216 -87 295 -50 55 -84 72 -406 205 -159 66 -449 186 -644 266 -195
81 -367 150 -383 153 -36 7 -36 19 1 26 23 5 281 109 426 172 17 7 64 26 105
43 277 111 792 328 826 347 53 31 104 88 134 150 22 44 25 67 28 191 2 78 2
148 1 156 -3 11 -33 2 -129 -38z"/>
<path d="M2367 4614 c-1 -1 -42 -5 -92 -8 -264 -20 -529 -123 -756 -291 -70
-52 -253 -225 -245 -232 3 -3 142 51 211 82 17 7 73 30 125 51 52 21 113 49
135 62 66 42 177 89 297 127 109 34 361 132 463 180 47 23 48 24 20 25 -68 4
-156 6 -158 4z"/>
<path d="M2950 4428 l0 -83 79 -39 c43 -21 115 -65 159 -96 l80 -58 55 54 55
54 -41 34 c-95 77 -338 216 -378 216 -5 0 -9 -37 -9 -82z"/>
<path d="M3445 4095 c-27 -29 -50 -57 -50 -63 0 -6 15 -26 33 -46 81 -90 187
-268 232 -392 45 -122 85 -309 82 -376 0 -9 5 -21 11 -26 13 -11 136 -62 148
-62 5 0 6 35 4 78 -3 69 -7 104 -21 182 -36 213 -135 443 -263 614 -57 74
-118 147 -123 145 -2 -1 -25 -25 -53 -54z"/>
<path d="M2943 3823 l-215 -216 34 -17 c18 -9 51 -23 74 -32 l41 -17 190 192
c104 106 193 201 197 211 8 24 -57 96 -87 96 -11 0 -106 -88 -234 -217z"/>
<path d="M2152 3627 c4 -144 6 -157 32 -210 28 -58 92 -129 136 -152 14 -7 77
-34 140 -60 63 -26 129 -53 145 -60 17 -8 82 -35 145 -60 63 -26 129 -53 145
-60 17 -8 109 -46 205 -85 96 -40 199 -83 228 -96 29 -13 57 -24 62 -24 6 0
18 -5 28 -10 31 -18 235 -100 248 -100 22 0 16 -20 -8 -30 -55 -23 -451 -186
-528 -217 -47 -18 -98 -40 -115 -47 -16 -8 -174 -73 -350 -146 -325 -134 -375
-158 -409 -194 -87 -96 -102 -143 -105 -324 -1 -78 0 -142 2 -142 3 0 53 20
113 45 59 25 113 45 120 45 8 0 14 5 14 10 0 6 6 10 12 10 11 0 438 170 503
200 11 6 218 91 460 191 514 211 529 218 580 267 69 67 78 101 78 306 0 216
-7 250 -70 317 -36 38 -133 101 -163 105 -3 0 -23 8 -45 18 -22 9 -96 40 -165
67 -69 28 -141 57 -160 66 -53 23 -70 30 -130 54 -30 12 -68 27 -85 34 -16 7
-70 29 -120 49 -49 20 -99 41 -110 46 -11 5 -69 29 -130 54 -114 46 -199 81
-514 210 -101 42 -186 76 -188 76 -3 0 -3 -69 -1 -153z"/>
<path d="M929 3275 c-11 -218 -1 -351 37 -500 14 -55 27 -107 29 -116 6 -27
72 -184 95 -225 68 -122 139 -227 180 -266 16 -15 21 -13 71 38 l53 53 -30 38
c-177 224 -283 521 -285 797 0 39 -5 54 -22 68 -60 51 -89 83 -107 117 l-19
36 -2 -40z"/>
<path d="M2335 3209 c-9 -14 -10 -13 67 -48 58 -25 68 -28 79 -15 6 8 10 16 8
17 -2 1 -29 15 -60 30 -60 29 -84 33 -94 16z"/>
<path d="M1710 2579 c-118 -121 -216 -221 -218 -223 -6 -7 19 -49 39 -69 10
-9 29 -21 42 -26 22 -9 44 11 261 228 130 131 236 241 236 244 0 7 -127 67
-139 67 -3 -1 -103 -100 -221 -221z"/>
<path d="M1460 2074 l-55 -55 45 -40 c144 -127 429 -273 594 -304 l34 -7 0 81
0 80 -67 22 c-115 37 -301 134 -399 209 -50 38 -93 70 -95 70 -1 0 -27 -25
-57 -56z"/>
<path d="M3465 2094 c-43 -20 -128 -57 -140 -60 -5 -1 -109 -43 -230 -94 -121
-50 -281 -116 -355 -146 -74 -30 -144 -59 -155 -64 -11 -5 -69 -30 -130 -55
l-110 -46 135 5 c74 3 146 8 160 10 166 29 306 74 445 143 85 43 254 153 293
191 10 9 31 29 47 43 44 38 90 89 79 88 -5 0 -22 -7 -39 -15z"/>
<path d="M964 1372 c-64 -20 -118 -100 -117 -174 1 -56 24 -99 75 -141 30 -24
48 -31 94 -33 48 -2 64 2 105 28 27 16 49 33 49 37 0 14 -36 41 -54 41 -9 0
-27 -5 -39 -12 -32 -17 -48 -19 -84 -7 -39 12 -63 48 -63 92 0 74 76 117 147
83 29 -14 39 -14 61 -4 40 20 37 35 -14 68 -48 30 -106 38 -160 22z"/>
<path d="M1293 1355 c-127 -76 -115 -254 21 -319 94 -45 211 8 242 109 15 52
12 100 -9 142 -45 87 -168 119 -254 68z m164 -87 c47 -48 31 -125 -32 -155
-48 -23 -103 -2 -128 49 -16 33 -16 40 -4 71 8 19 25 42 38 51 32 23 95 15
126 -16z"/>
<path d="M1638 1374 c-3 -5 -6 -86 -6 -181 l-2 -172 103 2 c93 3 106 6 144 31
107 71 105 230 -4 297 -28 18 -55 23 -133 27 -54 2 -100 0 -102 -4z m214 -113
c22 -24 26 -37 22 -67 -3 -21 -10 -44 -17 -52 -18 -23 -68 -40 -107 -38 l-35
1 -1 90 c-1 50 1 93 3 97 2 4 27 5 55 3 43 -3 57 -9 80 -34z"/>
<path d="M2024 1202 l1 -177 115 0 115 0 3 38 3 37 -79 0 c-78 0 -79 0 -79 25
0 32 20 42 80 39 l47 -3 0 39 0 39 -62 3 c-60 3 -63 4 -65 31 -2 30 -2 29 110
29 l47 -1 0 39 0 38 -118 1 -118 0 0 -177z"/>
<path d="M2575 1371 c-60 -25 -79 -109 -36 -155 14 -14 28 -26 33 -26 22 0 98
-44 98 -56 0 -8 -11 -20 -25 -26 -20 -9 -31 -8 -59 7 -29 16 -39 17 -60 7 -31
-14 -32 -22 -5 -55 46 -59 147 -60 198 -1 56 63 35 137 -48 173 -27 11 -54 21
-60 21 -6 0 -11 10 -11 21 0 19 4 21 45 15 46 -7 85 5 85 27 0 7 -16 22 -35
35 -35 22 -83 28 -120 13z"/>
<path d="M2778 1362 c-2 -9 -2 -27 0 -39 3 -18 10 -21 50 -20 l47 1 0 -140 0
-139 41 -2 41 -2 -1 140 c-1 86 3 139 9 140 6 0 28 1 50 2 39 2 40 3 40 37 l0
35 -137 2 c-121 1 -137 -1 -140 -15z"/>
<path d="M3174 1368 c-10 -15 -105 -228 -134 -299 l-19 -47 34 0 c35 0 75 28
75 53 0 17 -3 17 79 19 62 2 64 2 85 -31 22 -34 48 -47 84 -41 22 3 19 12 -58
183 -5 11 -23 54 -42 95 -30 68 -36 75 -65 78 -18 2 -35 -2 -39 -10z m52 -153
c18 -44 19 -42 -16 -47 -16 -3 -30 0 -30 6 0 12 23 76 28 76 1 0 10 -16 18
-35z"/>
<path d="M3510 1369 c-62 -25 -110 -95 -111 -162 -2 -136 132 -224 254 -167
63 30 75 45 52 70 -22 24 -42 25 -83 5 -49 -25 -110 -5 -131 42 -38 84 39 167
123 134 55 -22 62 -23 86 -3 21 17 23 22 10 37 -38 46 -138 68 -200 44z"/>
<path d="M3796 1372 c-2 -4 -4 -84 -3 -177 l2 -170 38 -2 c23 -1 37 2 38 10 1
7 2 87 3 178 l1 166 -37 1 c-20 1 -39 -2 -42 -6z"/>
<path d="M3994 1346 c-15 -17 -31 -41 -37 -53 -6 -13 -13 -23 -16 -23 -4 0
-15 -15 -25 -34 l-18 -34 53 -78 c30 -43 57 -83 61 -88 3 -5 27 -11 53 -12 55
-3 55 -3 -9 90 -25 35 -46 70 -46 75 0 6 -5 11 -10 11 -6 0 17 40 50 90 l60
89 -45 -1 c-38 0 -50 -6 -71 -32z"/>
<path d="M2327 1222 c-12 -3 -17 -14 -17 -38 l0 -35 73 3 72 3 3 33 c2 23 -1
32 -12 33 -43 3 -104 4 -119 1z"/>
</g>
</svg>
